<svg width="124" height="124" viewBox="0 0 124 124" fill="none" xmlns="http://www.w3.org/2000/svg">
<g filter="url(#filter0_i_1_16)">
<rect width="124" height="124" rx="30" fill="url(#paint0_linear_1_16)"/>
</g>
<path d="M45.0384 90.1779L49.3202 74.4039H53.2991L51.9459 81.4325L47.6641 96.2572H44.4123L45.0384 90.1779ZM43.0793 74.4039L45.9473 90.1173L46.2503 96.2572H42.3724L37 74.4039H43.0793ZM57.1769 89.8143L60.0247 74.4039H66.104L60.772 96.2572H56.8941L57.1769 89.8143ZM53.7838 74.4039L58.106 90.0971L58.7321 96.2572H55.44L51.1986 81.4527L49.906 74.4039H53.7838Z" fill="black"/>
<path d="M77.9395 91.7533C78.6128 91.7533 79.1985 91.6253 79.6967 91.3695C80.1949 91.1137 80.5786 90.7569 80.8479 90.2991C81.1307 89.8278 81.2721 89.2623 81.2721 88.6025H87.21C87.21 90.1913 86.7993 91.5917 85.978 92.8035C85.1701 94.0153 84.0795 94.9646 82.7061 95.6513C81.3326 96.3245 79.7842 96.6612 78.0607 96.6612C76.3642 96.6612 74.883 96.3851 73.6174 95.8331C72.3517 95.2676 71.2947 94.4799 70.4464 93.47C69.5981 92.4602 68.9586 91.2887 68.5277 89.9557C68.1103 88.6092 67.9016 87.155 67.9016 85.5931V85.068C67.9016 83.5196 68.1103 82.0721 68.5277 80.7256C68.9586 79.3792 69.5981 78.201 70.4464 77.1911C71.2947 76.1813 72.3449 75.4003 73.5972 74.8483C74.8628 74.2828 76.344 74 78.0405 74C79.8313 74 81.4134 74.3434 82.7868 75.0301C84.1737 75.7168 85.2576 76.7064 86.0386 77.999C86.8195 79.2782 87.21 80.8199 87.21 82.6242H81.2721C81.2721 81.924 81.1441 81.2979 80.8883 80.7458C80.6459 80.1803 80.2689 79.736 79.7573 79.4128C79.2591 79.0762 78.6397 78.9079 77.8991 78.9079C77.1316 78.9079 76.4988 79.0762 76.0006 79.4128C75.5159 79.736 75.1456 80.187 74.8898 80.766C74.6339 81.345 74.4589 82.0048 74.3646 82.7453C74.2704 83.4724 74.2233 84.2467 74.2233 85.068V85.5931C74.2233 86.428 74.2704 87.2224 74.3646 87.9764C74.4589 88.717 74.6339 89.37 74.8898 89.9355C75.1591 90.501 75.5361 90.9454 76.0208 91.2685C76.5055 91.5917 77.1451 91.7533 77.9395 91.7533Z" fill="black"/>
<path fill-rule="evenodd" clip-rule="evenodd" d="M45.2776 35.1109C43.6667 36.7218 43.6667 39.3145 43.6667 44.5V55.5C43.6667 60.6854 43.6667 63.2782 45.2776 64.8891C46.8885 66.5 49.4812 66.5 54.6667 66.5H69.3333C74.5188 66.5 77.1115 66.5 78.7224 64.8891C80.3333 63.2782 80.3333 60.6854 80.3333 55.5V44.5C80.3333 39.3146 80.3333 36.7218 78.7224 35.1109C77.1115 33.5 74.5188 33.5 69.3333 33.5H54.6667C49.4812 33.5 46.8885 33.5 45.2776 35.1109ZM69.3333 42.6667C70.3459 42.6667 71.1667 43.4875 71.1667 44.5V59.1667C71.1667 60.1792 70.3459 61 69.3333 61C68.3208 61 67.5 60.1792 67.5 59.1667V44.5C67.5 43.4875 68.3208 42.6667 69.3333 42.6667ZM56.5 48.1667C56.5 47.1541 55.6792 46.3333 54.6667 46.3333C53.6541 46.3333 52.8333 47.1541 52.8333 48.1667V59.1667C52.8333 60.1792 53.6541 61 54.6667 61C55.6792 61 56.5 60.1792 56.5 59.1667L56.5 48.1667ZM63.8333 51.8333C63.8333 50.8208 63.0125 50 62 50C60.9875 50 60.1667 50.8208 60.1667 51.8333V59.1667C60.1667 60.1792 60.9875 61 62 61C63.0125 61 63.8333 60.1792 63.8333 59.1667V51.8333Z" fill="#222222"/>
<defs>
<filter id="filter0_i_1_16" x="0" y="0" width="132" height="130" filterUnits="userSpaceOnUse" color-interpolation-filters="sRGB">
<feFlood flood-opacity="0" result="BackgroundImageFix"/>
<feBlend mode="normal" in="SourceGraphic" in2="BackgroundImageFix" result="shape"/>
<feColorMatrix in="SourceAlpha" type="matrix" values="0 0 0 0 0 0 0 0 0 0 0 0 0 0 0 0 0 0 127 0" result="hardAlpha"/>
<feOffset dx="8" dy="6"/>
<feGaussianBlur stdDeviation="10.95"/>
<feComposite in2="hardAlpha" operator="arithmetic" k2="-1" k3="1"/>
<feColorMatrix type="matrix" values="0 0 0 0 0 0 0 0 0 0 0 0 0 0 0 0 0 0 0.25 0"/>
<feBlend mode="normal" in2="shape" result="effect1_innerShadow_1_16"/>
</filter>
<linearGradient id="paint0_linear_1_16" x1="-21" y1="13" x2="142" y2="139" gradientUnits="userSpaceOnUse">
<stop stop-color="#F3B43F"/>
<stop offset="0.490211" stop-color="#F3B43F"/>
<stop offset="1" stop-color="#D9D9D9" stop-opacity="0"/>
</linearGradient>
</defs>
</svg>
